<svg width="110" height="110" viewBox="0 0 110 110" fill="none" xmlns="http://www.w3.org/2000/svg">
<mask id="mask0_5_691" style="mask-type:alpha" maskUnits="userSpaceOnUse" x="0" y="0" width="110" height="110">
<rect width="109.312" height="109.312" fill="#D9D9D9"/>
</mask>
<g mask="url(#mask0_5_691)">
<path d="M31.8828 95.6484C29.3777 95.6484 27.2332 94.7565 25.4493 92.9726C23.6654 91.1886 22.7734 89.0441 22.7734 86.5391V27.3281H18.2188V18.2188H40.9922V13.6641H68.3203V18.2188H91.0938V27.3281H86.5391V86.5391C86.5391 89.0441 85.6471 91.1886 83.8632 92.9726C82.0793 94.7565 79.9348 95.6484 77.4297 95.6484H31.8828ZM77.4297 27.3281H31.8828V86.5391H77.4297V27.3281ZM40.9922 77.4297H50.1016V36.4375H40.9922V77.4297ZM59.2109 77.4297H68.3203V36.4375H59.2109V77.4297Z" fill="#101010"/>
</g>
</svg>
