<svg width="18" height="18" viewBox="0 0 18 18" fill="none" xmlns="http://www.w3.org/2000/svg">
<path d="M1.54601 9.25834C1.48352 9.09 1.48352 8.90482 1.54601 8.73649C2.15461 7.2608 3.18767 5.99906 4.51423 5.11121C5.84079 4.22336 7.4011 3.74939 8.99736 3.74939C10.5936 3.74939 12.1539 4.22336 13.4805 5.11121C14.807 5.99906 15.8401 7.2608 16.4487 8.73649C16.5112 8.90482 16.5112 9.09 16.4487 9.25834C15.8401 10.734 14.807 11.9958 13.4805 12.8836C12.1539 13.7715 10.5936 14.2454 8.99736 14.2454C7.4011 14.2454 5.84079 13.7715 4.51423 12.8836C3.18767 11.9958 2.15461 10.734 1.54601 9.25834Z" stroke="#00C389" stroke-width="1.49957" stroke-linecap="round" stroke-linejoin="round"/>
<path d="M8.9974 11.2467C10.2397 11.2467 11.2467 10.2397 11.2467 8.9974C11.2467 7.75512 10.2397 6.74805 8.9974 6.74805C7.75512 6.74805 6.74805 7.75512 6.74805 8.9974C6.74805 10.2397 7.75512 11.2467 8.9974 11.2467Z" stroke="#00C389" stroke-width="1.49957" stroke-linecap="round" stroke-linejoin="round"/>
</svg>
