<svg width="18" height="18" viewBox="0 0 18 18" fill="none" xmlns="http://www.w3.org/2000/svg">
<g clip-path="url(#clip0_1_283)">
<path d="M1.54613 9.25834C1.48365 9.09 1.48365 8.90482 1.54613 8.73649C2.15473 7.2608 3.1878 5.99906 4.51435 5.11121C5.84091 4.22336 7.40122 3.74939 8.99748 3.74939C10.5937 3.74939 12.154 4.22336 13.4806 5.11121C14.8072 5.99906 15.8402 7.2608 16.4488 8.73649C16.5113 8.90482 16.5113 9.09 16.4488 9.25834C15.8402 10.734 14.8072 11.9958 13.4806 12.8836C12.154 13.7715 10.5937 14.2454 8.99748 14.2454C7.40122 14.2454 5.84091 13.7715 4.51435 12.8836C3.1878 11.9958 2.15473 10.734 1.54613 9.25834Z" stroke="#FF0000" stroke-width="1.49957" stroke-linecap="round" stroke-linejoin="round"/>
<path d="M8.9974 11.2467C10.2397 11.2467 11.2467 10.2397 11.2467 8.9974C11.2467 7.75512 10.2397 6.74805 8.9974 6.74805C7.75512 6.74805 6.74805 7.75512 6.74805 8.9974C6.74805 10.2397 7.75512 11.2467 8.9974 11.2467Z" stroke="#FF0000" stroke-width="1.49957" stroke-linecap="round" stroke-linejoin="round"/>
</g>
<defs>
<clipPath id="clip0_1_283">
<rect width="17.9948" height="17.9948" fill="white"/>
</clipPath>
</defs>
</svg>
